<svg width="262" height="74" viewBox="0 0 262 74" fill="none" xmlns="http://www.w3.org/2000/svg">
<g clip-path="url(#clip0_1_2)">
<g filter="url(#filter0_d_1_2)">
<path d="M11.136 57.768C7.59467 57.768 4.97067 57.0853 3.264 55.72C1.6 54.3547 0.768 52.6053 0.768 50.472C0.768 49.1493 1.19467 47.9973 2.048 47.016C2.90133 45.992 4.13867 45.48 5.76 45.48C7.12533 45.48 8.23467 45.8853 9.088 46.696C9.984 47.5067 10.432 48.5307 10.432 49.768C10.432 50.6213 10.2827 51.3467 9.984 51.944C9.68533 52.5413 9.30133 52.968 8.832 53.224V53.544C9.17333 53.6293 9.51467 53.6933 9.856 53.736C10.24 53.7787 10.6027 53.8 10.944 53.8C12.5227 53.8 13.7173 53.3093 14.528 52.328C15.3387 51.3467 15.744 49.6613 15.744 47.272V16.552H9.664V12.328H30.592V16.552H26.112V43.88C26.112 45.928 25.8347 47.8053 25.28 49.512C24.768 51.2187 23.9147 52.6907 22.72 53.928C21.5253 55.1227 19.968 56.0613 18.048 56.744C16.1707 57.4267 13.8667 57.768 11.136 57.768ZM56.107 57.768C53.2057 57.768 50.5177 57.2347 48.043 56.168C45.611 55.1013 43.5203 53.5867 41.771 51.624C40.0217 49.6187 38.6563 47.208 37.675 44.392C36.6937 41.5333 36.203 38.312 36.203 34.728C36.203 30.9733 36.7363 27.6667 37.803 24.808C38.9123 21.9067 40.4057 19.4747 42.283 17.512C44.203 15.5493 46.4217 14.0773 48.939 13.096C51.4563 12.072 54.1443 11.56 57.003 11.56C59.947 11.56 62.2723 12.0507 63.979 13.032C65.7283 14.0133 66.8803 15.016 67.435 16.04H67.819V12.328H75.243V26.536H67.819V23.72C67.819 21.5013 67.1363 19.7307 65.771 18.408C64.4057 17.0853 62.187 16.424 59.115 16.424C55.2323 16.424 52.331 17.4267 50.411 19.432C48.5337 21.3947 47.595 24.4667 47.595 28.648V40.872C47.595 44.7547 48.427 47.6987 50.091 49.704C51.7977 51.6667 54.187 52.648 57.259 52.648C60.2457 52.648 62.443 51.9013 63.851 50.408C65.259 48.872 65.963 46.9733 65.963 44.712V38.696H59.563V34.472H79.467V38.696H76.203V57H72.683L68.779 50.6H68.331C68.1177 51.3253 67.6697 52.1147 66.987 52.968C66.3043 53.7787 65.4083 54.5467 64.299 55.272C63.2323 55.9547 61.995 56.5307 60.587 57C59.2217 57.512 57.7283 57.768 56.107 57.768ZM95.605 57.768C91.9783 57.768 89.333 56.936 87.669 55.272C86.0477 53.5653 85.237 51.1973 85.237 48.168C85.237 41.5547 90.1223 38.248 99.893 38.248H104.373V34.6C104.373 31.9973 103.882 30.0347 102.901 28.712C101.92 27.3893 100.213 26.728 97.781 26.728C96.885 26.728 96.117 26.792 95.477 26.92C94.837 27.048 94.2823 27.2187 93.813 27.432V27.752C94.2397 27.9653 94.645 28.3493 95.029 28.904C95.4557 29.4587 95.669 30.2053 95.669 31.144C95.669 32.424 95.2637 33.512 94.453 34.408C93.6423 35.2613 92.4263 35.688 90.805 35.688C89.525 35.688 88.4583 35.24 87.605 34.344C86.7517 33.448 86.325 32.3173 86.325 30.952C86.325 29.928 86.6237 28.9253 87.221 27.944C87.8183 26.92 88.7143 26.024 89.909 25.256C91.1037 24.488 92.5757 23.8693 94.325 23.4C96.117 22.9307 98.165 22.696 100.469 22.696C105.12 22.696 108.554 23.6987 110.773 25.704C112.992 27.6667 114.101 30.4613 114.101 34.088V52.776H117.941V56.424C117.216 56.8507 116.277 57.1707 115.125 57.384C113.973 57.64 112.778 57.768 111.541 57.768C109.194 57.768 107.53 57.2347 106.549 56.168C105.61 55.0587 105.141 53.6933 105.141 52.072V51.944H104.757C104.458 52.6693 104.074 53.3733 103.605 54.056C103.178 54.7387 102.602 55.3573 101.877 55.912C101.194 56.4667 100.341 56.9147 99.317 57.256C98.293 57.5973 97.0557 57.768 95.605 57.768ZM99.253 52.008C100.832 52.008 102.069 51.6453 102.965 50.92C103.904 50.1947 104.373 48.936 104.373 47.144V42.088H100.917C98.869 42.088 97.333 42.5147 96.309 43.368C95.3277 44.2213 94.837 45.4373 94.837 47.016V48.04C94.837 49.4053 95.2423 50.408 96.053 51.048C96.8637 51.688 97.9303 52.008 99.253 52.008ZM122.056 52.776H125.896V29.928L122.056 29.096V25.448L135.432 22.696V29.032H135.752C136.349 27.3253 137.373 25.8533 138.824 24.616C140.317 23.336 142.386 22.696 145.032 22.696C147.933 22.696 150.194 23.2293 151.816 24.296C153.48 25.3627 154.61 26.9413 155.208 29.032H155.464C156.146 27.368 157.298 25.896 158.92 24.616C160.541 23.336 162.696 22.696 165.384 22.696C169.394 22.696 172.21 23.72 173.832 25.768C175.496 27.816 176.328 30.9093 176.328 35.048V52.776H180.168V57H163.272V52.776H166.6V35.432C166.6 33.1707 166.216 31.5707 165.448 30.632C164.722 29.6507 163.464 29.16 161.672 29.16C160.946 29.16 160.242 29.2667 159.56 29.48C158.877 29.6507 158.258 29.9493 157.704 30.376C157.192 30.76 156.765 31.272 156.424 31.912C156.125 32.552 155.976 33.2987 155.976 34.152V52.776H159.304V57H142.92V52.776H146.248V35.432C146.248 33.1707 145.864 31.5707 145.096 30.632C144.37 29.6507 143.133 29.16 141.384 29.16C139.89 29.16 138.546 29.5653 137.352 30.376C136.2 31.144 135.624 32.4027 135.624 34.152V52.776H138.952V57H122.056V52.776ZM200.628 57.768C197.983 57.768 195.637 57.3413 193.589 56.488C191.583 55.592 189.877 54.376 188.469 52.84C187.103 51.2613 186.058 49.4053 185.333 47.272C184.607 45.096 184.245 42.728 184.245 40.168C184.245 37.48 184.607 35.048 185.333 32.872C186.101 30.696 187.167 28.8613 188.533 27.368C189.941 25.8747 191.605 24.7227 193.525 23.912C195.487 23.1013 197.663 22.696 200.053 22.696C202.442 22.696 204.597 23.0587 206.517 23.784C208.437 24.5093 210.058 25.5547 211.381 26.92C212.746 28.2427 213.791 29.864 214.517 31.784C215.242 33.704 215.604 35.8373 215.604 38.184V40.36H194.549V42.92C194.549 45.7787 195.295 47.9333 196.789 49.384C198.282 50.8347 200.266 51.56 202.741 51.56C205.045 51.56 206.901 51.048 208.309 50.024C209.717 48.9573 210.719 47.6773 211.317 46.184L214.837 48.296C214.453 49.3627 213.898 50.4507 213.173 51.56C212.447 52.6693 211.509 53.6933 210.357 54.632C209.205 55.528 207.818 56.2747 206.197 56.872C204.575 57.4693 202.719 57.768 200.628 57.768ZM194.549 36.328H205.557V35.432C205.557 32.36 205.066 30.2053 204.085 28.968C203.103 27.7307 201.759 27.112 200.053 27.112C198.346 27.112 197.002 27.7307 196.021 28.968C195.039 30.2053 194.549 32.36 194.549 35.432V36.328ZM234.958 57.768C232.612 57.768 230.82 57.3413 229.583 56.488C228.345 55.592 227.556 54.6107 227.215 53.544H226.959V57H220.687V47.016H226.959V48.04C226.959 49.704 227.471 50.9627 228.495 51.816C229.519 52.6693 231.183 53.096 233.487 53.096C235.535 53.096 237.028 52.776 237.967 52.136C238.905 51.496 239.375 50.5147 239.375 49.192C239.375 48.1253 239.033 47.3147 238.351 46.76C237.668 46.1627 236.537 45.6293 234.958 45.16L231.951 44.328C228.239 43.304 225.487 41.9387 223.695 40.232C221.945 38.4827 221.071 36.136 221.071 33.192C221.071 29.8213 222.18 27.24 224.399 25.448C226.617 23.6133 229.54 22.696 233.167 22.696C235.428 22.696 237.156 23.1227 238.351 23.976C239.545 24.8293 240.313 25.7893 240.655 26.856H240.911V23.464H247.183V33.448H240.911V32.296C240.911 30.6747 240.399 29.4587 239.375 28.648C238.393 27.7947 236.772 27.368 234.51 27.368C231.268 27.368 229.647 28.5413 229.647 30.888C229.647 31.9973 229.967 32.8933 230.607 33.576C231.289 34.2587 232.505 34.8133 234.255 35.24L237.007 35.944C238.799 36.4133 240.377 36.9467 241.743 37.544C243.108 38.1413 244.239 38.8667 245.135 39.72C246.073 40.5307 246.777 41.5333 247.247 42.728C247.716 43.88 247.951 45.2667 247.951 46.888C247.951 50.4293 246.756 53.1387 244.367 55.016C241.977 56.8507 238.841 57.768 234.958 57.768Z" fill="#00FFFF"/>
</g>
</g>
<defs>
<filter id="filter0_d_1_2" x="0.768005" y="11.56" width="252.182" height="47.208" filterUnits="userSpaceOnUse" color-interpolation-filters="sRGB">
<feFlood flood-opacity="0" result="BackgroundImageFix"/>
<feColorMatrix in="SourceAlpha" type="matrix" values="0 0 0 0 0 0 0 0 0 0 0 0 0 0 0 0 0 0 127 0" result="hardAlpha"/>
<feOffset dx="5" dy="1"/>
<feComposite in2="hardAlpha" operator="out"/>
<feColorMatrix type="matrix" values="0 0 0 0 0.02 0 0 0 0 0 0 0 0 0 1 0 0 0 0.42 0"/>
<feBlend mode="normal" in2="BackgroundImageFix" result="effect1_dropShadow_1_2"/>
<feBlend mode="normal" in="SourceGraphic" in2="effect1_dropShadow_1_2" result="shape"/>
</filter>
<clipPath id="clip0_1_2">
<rect width="262" height="74" fill="white"/>
</clipPath>
</defs>
</svg>
